<mxfile host="app.diagrams.net" modified="2024-07-06T14:23:06.748Z" agent="Mozilla/5.0 (X11; Linux x86_64) AppleWebKit/537.36 (KHTML, like Gecko) Chrome/126.0.0.0 Safari/537.36 Edg/126.0.0.0" etag="YpRdr2DjtJv_Qfeqloes" version="24.6.4" type="device">
  <diagram name="Page-1" id="OQJ6X_pMSy6fP0mam6s3">
    <mxGraphModel dx="1426" dy="763" grid="1" gridSize="10" guides="1" tooltips="1" connect="1" arrows="1" fold="1" page="1" pageScale="1" pageWidth="850" pageHeight="1100" math="0" shadow="0">
      <root>
        <mxCell id="0" />
        <mxCell id="1" parent="0" />
        <mxCell id="-n86uFffWHXg1EDDt1gK-1" value="" style="rounded=0;whiteSpace=wrap;html=1;" vertex="1" parent="1">
          <mxGeometry x="260" y="10" width="720" height="960" as="geometry" />
        </mxCell>
        <mxCell id="-n86uFffWHXg1EDDt1gK-2" style="edgeStyle=none;rounded=0;orthogonalLoop=1;jettySize=auto;html=1;exitX=0.5;exitY=0.5;exitDx=0;exitDy=0;exitPerimeter=0;entryX=0;entryY=0.5;entryDx=0;entryDy=0;" edge="1" parent="1" source="-n86uFffWHXg1EDDt1gK-9" target="-n86uFffWHXg1EDDt1gK-16">
          <mxGeometry relative="1" as="geometry" />
        </mxCell>
        <mxCell id="-n86uFffWHXg1EDDt1gK-3" style="edgeStyle=none;rounded=0;orthogonalLoop=1;jettySize=auto;html=1;exitX=0.5;exitY=0.5;exitDx=0;exitDy=0;exitPerimeter=0;entryX=0;entryY=0.5;entryDx=0;entryDy=0;" edge="1" parent="1" source="-n86uFffWHXg1EDDt1gK-9" target="-n86uFffWHXg1EDDt1gK-13">
          <mxGeometry relative="1" as="geometry" />
        </mxCell>
        <mxCell id="-n86uFffWHXg1EDDt1gK-4" style="edgeStyle=none;rounded=0;orthogonalLoop=1;jettySize=auto;html=1;exitX=0.5;exitY=0.5;exitDx=0;exitDy=0;exitPerimeter=0;entryX=0;entryY=0.5;entryDx=0;entryDy=0;" edge="1" parent="1" source="-n86uFffWHXg1EDDt1gK-9" target="-n86uFffWHXg1EDDt1gK-10">
          <mxGeometry relative="1" as="geometry" />
        </mxCell>
        <mxCell id="-n86uFffWHXg1EDDt1gK-7" style="edgeStyle=none;rounded=0;orthogonalLoop=1;jettySize=auto;html=1;exitX=0.5;exitY=0.5;exitDx=0;exitDy=0;exitPerimeter=0;entryX=0;entryY=0.5;entryDx=0;entryDy=0;" edge="1" parent="1" source="-n86uFffWHXg1EDDt1gK-9" target="-n86uFffWHXg1EDDt1gK-23">
          <mxGeometry relative="1" as="geometry" />
        </mxCell>
        <mxCell id="-n86uFffWHXg1EDDt1gK-8" style="rounded=0;orthogonalLoop=1;jettySize=auto;html=1;exitX=0.5;exitY=0.5;exitDx=0;exitDy=0;exitPerimeter=0;entryX=0;entryY=0.5;entryDx=0;entryDy=0;" edge="1" parent="1" source="-n86uFffWHXg1EDDt1gK-9" target="-n86uFffWHXg1EDDt1gK-38">
          <mxGeometry relative="1" as="geometry" />
        </mxCell>
        <mxCell id="-n86uFffWHXg1EDDt1gK-9" value="Staff&lt;div&gt;&lt;br&gt;&lt;/div&gt;" style="shape=umlActor;verticalLabelPosition=bottom;verticalAlign=top;html=1;outlineConnect=0;" vertex="1" parent="1">
          <mxGeometry x="120" y="480" width="30" height="60" as="geometry" />
        </mxCell>
        <mxCell id="-n86uFffWHXg1EDDt1gK-10" value="View analytics" style="ellipse;whiteSpace=wrap;html=1;" vertex="1" parent="1">
          <mxGeometry x="310" y="550" width="120" height="80" as="geometry" />
        </mxCell>
        <mxCell id="-n86uFffWHXg1EDDt1gK-11" value="&amp;lt;&amp;lt;extends&amp;gt;&amp;gt;" style="edgeStyle=none;rounded=0;orthogonalLoop=1;jettySize=auto;html=1;exitX=0;exitY=0.5;exitDx=0;exitDy=0;entryX=1;entryY=0.5;entryDx=0;entryDy=0;dashed=1;" edge="1" parent="1" source="-n86uFffWHXg1EDDt1gK-27" target="-n86uFffWHXg1EDDt1gK-13">
          <mxGeometry relative="1" as="geometry" />
        </mxCell>
        <mxCell id="-n86uFffWHXg1EDDt1gK-12" value="&amp;lt;&amp;lt;extends&amp;gt;&amp;gt;" style="rounded=0;orthogonalLoop=1;jettySize=auto;html=1;exitX=0;exitY=0.5;exitDx=0;exitDy=0;entryX=0.5;entryY=0;entryDx=0;entryDy=0;dashed=1;edgeStyle=orthogonalEdgeStyle;" edge="1" parent="1" source="-n86uFffWHXg1EDDt1gK-35" target="-n86uFffWHXg1EDDt1gK-13">
          <mxGeometry relative="1" as="geometry">
            <Array as="points">
              <mxPoint x="370" y="320" />
            </Array>
          </mxGeometry>
        </mxCell>
        <mxCell id="-n86uFffWHXg1EDDt1gK-13" value="View post list" style="ellipse;whiteSpace=wrap;html=1;" vertex="1" parent="1">
          <mxGeometry x="310" y="460" width="120" height="80" as="geometry" />
        </mxCell>
        <mxCell id="-n86uFffWHXg1EDDt1gK-14" value="&amp;lt;&amp;lt;extends&amp;gt;&amp;gt;" style="edgeStyle=none;rounded=0;orthogonalLoop=1;jettySize=auto;html=1;exitX=0;exitY=0.5;exitDx=0;exitDy=0;entryX=1;entryY=0.5;entryDx=0;entryDy=0;dashed=1;" edge="1" parent="1" source="-n86uFffWHXg1EDDt1gK-25" target="-n86uFffWHXg1EDDt1gK-16">
          <mxGeometry relative="1" as="geometry" />
        </mxCell>
        <mxCell id="-n86uFffWHXg1EDDt1gK-15" value="&amp;lt;&amp;lt;extends&amp;gt;&amp;gt;" style="edgeStyle=orthogonalEdgeStyle;rounded=0;orthogonalLoop=1;jettySize=auto;html=1;exitX=0;exitY=0.5;exitDx=0;exitDy=0;entryX=1;entryY=0;entryDx=0;entryDy=0;dashed=1;" edge="1" parent="1" source="-n86uFffWHXg1EDDt1gK-36" target="-n86uFffWHXg1EDDt1gK-16">
          <mxGeometry relative="1" as="geometry" />
        </mxCell>
        <mxCell id="-n86uFffWHXg1EDDt1gK-16" value="View product list" style="ellipse;whiteSpace=wrap;html=1;" vertex="1" parent="1">
          <mxGeometry x="315" y="200" width="120" height="80" as="geometry" />
        </mxCell>
        <mxCell id="-n86uFffWHXg1EDDt1gK-17" value="&amp;lt;&amp;lt;extends&amp;gt;&amp;gt;" style="edgeStyle=none;rounded=0;orthogonalLoop=1;jettySize=auto;html=1;exitX=0;exitY=0.5;exitDx=0;exitDy=0;entryX=1;entryY=0.5;entryDx=0;entryDy=0;dashed=1;" edge="1" parent="1" source="-n86uFffWHXg1EDDt1gK-30">
          <mxGeometry x="-0.0048" relative="1" as="geometry">
            <mxPoint as="offset" />
            <mxPoint x="440" y="610" as="targetPoint" />
          </mxGeometry>
        </mxCell>
        <mxCell id="-n86uFffWHXg1EDDt1gK-21" value="&amp;lt;&amp;lt;extends&amp;gt;&amp;gt;" style="edgeStyle=none;rounded=0;orthogonalLoop=1;jettySize=auto;html=1;exitX=0;exitY=0.5;exitDx=0;exitDy=0;entryX=1;entryY=0.5;entryDx=0;entryDy=0;dashed=1;" edge="1" parent="1" source="-n86uFffWHXg1EDDt1gK-31" target="-n86uFffWHXg1EDDt1gK-23">
          <mxGeometry x="-0.0526" relative="1" as="geometry">
            <mxPoint as="offset" />
          </mxGeometry>
        </mxCell>
        <mxCell id="-n86uFffWHXg1EDDt1gK-22" value="&amp;lt;&amp;lt;extends&amp;gt;&amp;gt;" style="edgeStyle=orthogonalEdgeStyle;rounded=0;orthogonalLoop=1;jettySize=auto;html=1;exitX=0.5;exitY=0;exitDx=0;exitDy=0;entryX=0;entryY=0.5;entryDx=0;entryDy=0;dashed=1;" edge="1" parent="1" source="-n86uFffWHXg1EDDt1gK-23" target="-n86uFffWHXg1EDDt1gK-42">
          <mxGeometry relative="1" as="geometry" />
        </mxCell>
        <mxCell id="-n86uFffWHXg1EDDt1gK-23" value="View feedback list" style="ellipse;whiteSpace=wrap;html=1;" vertex="1" parent="1">
          <mxGeometry x="310" y="730" width="120" height="80" as="geometry" />
        </mxCell>
        <mxCell id="-n86uFffWHXg1EDDt1gK-24" value="&amp;lt;&amp;lt;extends&amp;gt;&amp;gt;" style="edgeStyle=none;rounded=0;orthogonalLoop=1;jettySize=auto;html=1;exitX=0;exitY=0.5;exitDx=0;exitDy=0;entryX=1;entryY=0.5;entryDx=0;entryDy=0;dashed=1;" edge="1" parent="1" source="-n86uFffWHXg1EDDt1gK-32" target="-n86uFffWHXg1EDDt1gK-25">
          <mxGeometry relative="1" as="geometry" />
        </mxCell>
        <mxCell id="-n86uFffWHXg1EDDt1gK-25" value="View product details" style="ellipse;whiteSpace=wrap;html=1;" vertex="1" parent="1">
          <mxGeometry x="545" y="200" width="120" height="80" as="geometry" />
        </mxCell>
        <mxCell id="-n86uFffWHXg1EDDt1gK-26" value="&amp;lt;&amp;lt;extends&amp;gt;&amp;gt;" style="edgeStyle=none;rounded=0;orthogonalLoop=1;jettySize=auto;html=1;exitX=0;exitY=0.5;exitDx=0;exitDy=0;entryX=1;entryY=0.5;entryDx=0;entryDy=0;dashed=1;" edge="1" parent="1" source="-n86uFffWHXg1EDDt1gK-33" target="-n86uFffWHXg1EDDt1gK-27">
          <mxGeometry relative="1" as="geometry" />
        </mxCell>
        <mxCell id="-n86uFffWHXg1EDDt1gK-27" value="View post details" style="ellipse;whiteSpace=wrap;html=1;" vertex="1" parent="1">
          <mxGeometry x="540" y="460" width="120" height="80" as="geometry" />
        </mxCell>
        <mxCell id="-n86uFffWHXg1EDDt1gK-29" value="&amp;lt;&amp;lt;extends&amp;gt;&amp;gt;" style="edgeStyle=none;rounded=0;orthogonalLoop=1;jettySize=auto;html=1;exitX=0;exitY=0.5;exitDx=0;exitDy=0;entryX=1;entryY=0.5;entryDx=0;entryDy=0;dashed=1;" edge="1" parent="1" target="-n86uFffWHXg1EDDt1gK-30">
          <mxGeometry relative="1" as="geometry">
            <mxPoint x="755" y="610" as="sourcePoint" />
          </mxGeometry>
        </mxCell>
        <mxCell id="-n86uFffWHXg1EDDt1gK-31" value="View feedback details" style="ellipse;whiteSpace=wrap;html=1;" vertex="1" parent="1">
          <mxGeometry x="540" y="730" width="120" height="80" as="geometry" />
        </mxCell>
        <mxCell id="-n86uFffWHXg1EDDt1gK-32" value="Update product details" style="ellipse;whiteSpace=wrap;html=1;" vertex="1" parent="1">
          <mxGeometry x="760" y="200" width="120" height="80" as="geometry" />
        </mxCell>
        <mxCell id="-n86uFffWHXg1EDDt1gK-33" value="Update post details" style="ellipse;whiteSpace=wrap;html=1;" vertex="1" parent="1">
          <mxGeometry x="760" y="460" width="120" height="80" as="geometry" />
        </mxCell>
        <mxCell id="-n86uFffWHXg1EDDt1gK-35" value="Add post" style="ellipse;whiteSpace=wrap;html=1;" vertex="1" parent="1">
          <mxGeometry x="420" y="280" width="120" height="80" as="geometry" />
        </mxCell>
        <mxCell id="-n86uFffWHXg1EDDt1gK-36" value="Add product" style="ellipse;whiteSpace=wrap;html=1;" vertex="1" parent="1">
          <mxGeometry x="505" y="40" width="120" height="80" as="geometry" />
        </mxCell>
        <mxCell id="-n86uFffWHXg1EDDt1gK-37" value="&amp;lt;&amp;lt;extends&amp;gt;&amp;gt;" style="edgeStyle=none;rounded=0;orthogonalLoop=1;jettySize=auto;html=1;exitX=0;exitY=0.5;exitDx=0;exitDy=0;entryX=1;entryY=0.5;entryDx=0;entryDy=0;dashed=1;" edge="1" parent="1" source="-n86uFffWHXg1EDDt1gK-40" target="-n86uFffWHXg1EDDt1gK-38">
          <mxGeometry relative="1" as="geometry" />
        </mxCell>
        <mxCell id="-n86uFffWHXg1EDDt1gK-38" value="View order list" style="ellipse;whiteSpace=wrap;html=1;" vertex="1" parent="1">
          <mxGeometry x="310" y="840" width="120" height="80" as="geometry" />
        </mxCell>
        <mxCell id="-n86uFffWHXg1EDDt1gK-39" value="&amp;lt;&amp;lt;extends&amp;gt;&amp;gt;" style="edgeStyle=none;rounded=0;orthogonalLoop=1;jettySize=auto;html=1;exitX=0;exitY=0.5;exitDx=0;exitDy=0;entryX=1;entryY=0.5;entryDx=0;entryDy=0;dashed=1;" edge="1" parent="1" source="-n86uFffWHXg1EDDt1gK-41" target="-n86uFffWHXg1EDDt1gK-40">
          <mxGeometry relative="1" as="geometry" />
        </mxCell>
        <mxCell id="-n86uFffWHXg1EDDt1gK-40" value="View order details" style="ellipse;whiteSpace=wrap;html=1;" vertex="1" parent="1">
          <mxGeometry x="540" y="840" width="120" height="80" as="geometry" />
        </mxCell>
        <mxCell id="-n86uFffWHXg1EDDt1gK-41" value="Update order status" style="ellipse;whiteSpace=wrap;html=1;" vertex="1" parent="1">
          <mxGeometry x="750" y="840" width="120" height="80" as="geometry" />
        </mxCell>
        <mxCell id="-n86uFffWHXg1EDDt1gK-42" value="Delete feedback" style="ellipse;whiteSpace=wrap;html=1;" vertex="1" parent="1">
          <mxGeometry x="540" y="630" width="120" height="80" as="geometry" />
        </mxCell>
        <mxCell id="-n86uFffWHXg1EDDt1gK-43" value="Delete product" style="ellipse;whiteSpace=wrap;html=1;" vertex="1" parent="1">
          <mxGeometry x="725" y="70" width="120" height="80" as="geometry" />
        </mxCell>
        <mxCell id="-n86uFffWHXg1EDDt1gK-45" value="&amp;lt;&amp;lt;extends&amp;gt;&amp;gt;" style="edgeStyle=orthogonalEdgeStyle;rounded=0;orthogonalLoop=1;jettySize=auto;html=1;exitX=0;exitY=0.5;exitDx=0;exitDy=0;entryX=1;entryY=0;entryDx=0;entryDy=0;dashed=1;" edge="1" parent="1" source="-n86uFffWHXg1EDDt1gK-44" target="-n86uFffWHXg1EDDt1gK-13">
          <mxGeometry relative="1" as="geometry" />
        </mxCell>
        <mxCell id="-n86uFffWHXg1EDDt1gK-44" value="Delete post" style="ellipse;whiteSpace=wrap;html=1;" vertex="1" parent="1">
          <mxGeometry x="690" y="350" width="120" height="80" as="geometry" />
        </mxCell>
      </root>
    </mxGraphModel>
  </diagram>
</mxfile>
